<mxfile host="app.diagrams.net" modified="2021-12-30T20:43:36.133Z" agent="5.0 (Windows NT 6.1; Win64; x64) AppleWebKit/537.36 (KHTML, like Gecko) Chrome/96.0.4664.45 Safari/537.36" etag="Dl9gZTZpsIAujvUWW5dS" version="16.1.2" type="github">
  <diagram id="kgpKYQtTHZ0yAKxKKP6v" name="Page-1">
    <mxGraphModel dx="1240" dy="689" grid="1" gridSize="10" guides="1" tooltips="1" connect="1" arrows="1" fold="1" page="1" pageScale="1" pageWidth="850" pageHeight="1100" math="0" shadow="0">
      <root>
        <mxCell id="0" />
        <mxCell id="1" parent="0" />
        <mxCell id="3nuBFxr9cyL0pnOWT2aG-1" value="Guest" style="shape=umlLifeline;perimeter=lifelinePerimeter;container=1;collapsible=0;recursiveResize=0;rounded=0;shadow=0;strokeWidth=1;perimeterSpacing=0;fillColor=#ffe6cc;strokeColor=#d79b00;" parent="1" vertex="1">
          <mxGeometry x="100" y="80" width="100" height="380" as="geometry" />
        </mxCell>
        <mxCell id="3nuBFxr9cyL0pnOWT2aG-2" value="" style="points=[];perimeter=orthogonalPerimeter;rounded=0;shadow=0;strokeWidth=1;" parent="3nuBFxr9cyL0pnOWT2aG-1" vertex="1">
          <mxGeometry x="45" y="70" width="10" height="310" as="geometry" />
        </mxCell>
        <mxCell id="3nuBFxr9cyL0pnOWT2aG-3" value="" style="verticalAlign=bottom;startArrow=oval;endArrow=block;startSize=8;shadow=0;strokeWidth=1;" parent="3nuBFxr9cyL0pnOWT2aG-1" target="3nuBFxr9cyL0pnOWT2aG-2" edge="1">
          <mxGeometry x="0.5" y="20" relative="1" as="geometry">
            <mxPoint x="-15" y="70" as="sourcePoint" />
            <mxPoint as="offset" />
          </mxGeometry>
        </mxCell>
        <mxCell id="3nuBFxr9cyL0pnOWT2aG-5" value="Receptionist" style="shape=umlLifeline;perimeter=lifelinePerimeter;container=1;collapsible=0;recursiveResize=0;rounded=0;shadow=0;strokeWidth=1;" parent="1" vertex="1">
          <mxGeometry x="280" y="80" width="100" height="380" as="geometry" />
        </mxCell>
        <mxCell id="3nuBFxr9cyL0pnOWT2aG-6" value="" style="points=[];perimeter=orthogonalPerimeter;rounded=0;shadow=0;strokeWidth=1;" parent="3nuBFxr9cyL0pnOWT2aG-5" vertex="1">
          <mxGeometry x="45" y="70" width="10" height="310" as="geometry" />
        </mxCell>
        <mxCell id="3nuBFxr9cyL0pnOWT2aG-8" value="query Room availbiltiy" style="verticalAlign=bottom;endArrow=block;entryX=0;entryY=0;shadow=0;strokeWidth=1;" parent="1" source="3nuBFxr9cyL0pnOWT2aG-2" target="3nuBFxr9cyL0pnOWT2aG-6" edge="1">
          <mxGeometry relative="1" as="geometry">
            <mxPoint x="275" y="160" as="sourcePoint" />
          </mxGeometry>
        </mxCell>
        <mxCell id="3nuBFxr9cyL0pnOWT2aG-9" value="Room available" style="verticalAlign=bottom;endArrow=block;shadow=0;strokeWidth=1;" parent="1" source="3nuBFxr9cyL0pnOWT2aG-6" target="3nuBFxr9cyL0pnOWT2aG-1" edge="1">
          <mxGeometry relative="1" as="geometry">
            <mxPoint x="240" y="200" as="sourcePoint" />
            <mxPoint x="160" y="200" as="targetPoint" />
            <Array as="points">
              <mxPoint x="310" y="180" />
            </Array>
          </mxGeometry>
        </mxCell>
        <mxCell id="O2JDXleAkRafH4N3ai_Y-1" value="Room list" style="shape=umlLifeline;perimeter=lifelinePerimeter;container=1;collapsible=0;recursiveResize=0;rounded=0;shadow=0;strokeWidth=1;" parent="1" vertex="1">
          <mxGeometry x="440" y="80" width="100" height="340" as="geometry" />
        </mxCell>
        <mxCell id="O2JDXleAkRafH4N3ai_Y-2" value="" style="points=[];perimeter=orthogonalPerimeter;rounded=0;shadow=0;strokeWidth=1;" parent="O2JDXleAkRafH4N3ai_Y-1" vertex="1">
          <mxGeometry x="45" y="80" width="10" height="230" as="geometry" />
        </mxCell>
        <mxCell id="O2JDXleAkRafH4N3ai_Y-3" value="Reservation system" style="shape=umlLifeline;perimeter=lifelinePerimeter;container=1;collapsible=0;recursiveResize=0;rounded=0;shadow=0;strokeWidth=1;" parent="1" vertex="1">
          <mxGeometry x="580" y="80" width="110" height="340" as="geometry" />
        </mxCell>
        <mxCell id="O2JDXleAkRafH4N3ai_Y-4" value="" style="points=[];perimeter=orthogonalPerimeter;rounded=0;shadow=0;strokeWidth=1;" parent="O2JDXleAkRafH4N3ai_Y-3" vertex="1">
          <mxGeometry x="45" y="190" width="10" height="50" as="geometry" />
        </mxCell>
        <mxCell id="O2JDXleAkRafH4N3ai_Y-14" value="" style="points=[];perimeter=orthogonalPerimeter;rounded=0;shadow=0;strokeWidth=1;" parent="O2JDXleAkRafH4N3ai_Y-3" vertex="1">
          <mxGeometry x="45" y="260" width="10" height="40" as="geometry" />
        </mxCell>
        <mxCell id="O2JDXleAkRafH4N3ai_Y-5" value="BankÂ system" style="shape=umlLifeline;perimeter=lifelinePerimeter;container=1;collapsible=0;recursiveResize=0;rounded=0;shadow=0;strokeWidth=1;" parent="1" vertex="1">
          <mxGeometry x="740" y="80" width="210" height="390" as="geometry" />
        </mxCell>
        <mxCell id="O2JDXleAkRafH4N3ai_Y-7" value="Check Availblity" style="verticalAlign=bottom;endArrow=block;shadow=0;strokeWidth=1;entryX=0.5;entryY=0.038;entryDx=0;entryDy=0;entryPerimeter=0;" parent="1" target="O2JDXleAkRafH4N3ai_Y-2" edge="1">
          <mxGeometry relative="1" as="geometry">
            <mxPoint x="340" y="170" as="sourcePoint" />
            <mxPoint x="490" y="180" as="targetPoint" />
          </mxGeometry>
        </mxCell>
        <mxCell id="O2JDXleAkRafH4N3ai_Y-8" value="Confirms Detalis" style="verticalAlign=bottom;endArrow=block;shadow=0;strokeWidth=1;" parent="1" source="3nuBFxr9cyL0pnOWT2aG-1" edge="1">
          <mxGeometry relative="1" as="geometry">
            <mxPoint x="150" y="220" as="sourcePoint" />
            <mxPoint x="330" y="240" as="targetPoint" />
            <Array as="points" />
          </mxGeometry>
        </mxCell>
        <mxCell id="O2JDXleAkRafH4N3ai_Y-9" value="Confirms Booking" style="verticalAlign=bottom;endArrow=block;shadow=0;strokeWidth=1;" parent="1" source="3nuBFxr9cyL0pnOWT2aG-1" edge="1">
          <mxGeometry relative="1" as="geometry">
            <mxPoint x="335" y="206.92999999999995" as="sourcePoint" />
            <mxPoint x="320" y="350" as="targetPoint" />
          </mxGeometry>
        </mxCell>
        <mxCell id="O2JDXleAkRafH4N3ai_Y-10" value="Advised Customer of price" style="verticalAlign=bottom;endArrow=block;shadow=0;strokeWidth=1;exitX=0.2;exitY=0.593;exitDx=0;exitDy=0;exitPerimeter=0;" parent="1" source="3nuBFxr9cyL0pnOWT2aG-6" target="3nuBFxr9cyL0pnOWT2aG-2" edge="1">
          <mxGeometry relative="1" as="geometry">
            <mxPoint x="345" y="216.92999999999995" as="sourcePoint" />
            <mxPoint x="150" y="248" as="targetPoint" />
          </mxGeometry>
        </mxCell>
        <mxCell id="O2JDXleAkRafH4N3ai_Y-11" value="Request Clients details" style="verticalAlign=bottom;endArrow=block;shadow=0;strokeWidth=1;" parent="1" edge="1">
          <mxGeometry relative="1" as="geometry">
            <mxPoint x="320" y="220" as="sourcePoint" />
            <mxPoint x="160" y="220" as="targetPoint" />
            <Array as="points" />
          </mxGeometry>
        </mxCell>
        <mxCell id="O2JDXleAkRafH4N3ai_Y-12" value="Confirm Room" style="verticalAlign=bottom;endArrow=block;shadow=0;strokeWidth=1;" parent="1" source="3nuBFxr9cyL0pnOWT2aG-2" edge="1">
          <mxGeometry relative="1" as="geometry">
            <mxPoint x="365" y="236.92999999999995" as="sourcePoint" />
            <mxPoint x="320" y="200" as="targetPoint" />
          </mxGeometry>
        </mxCell>
        <mxCell id="O2JDXleAkRafH4N3ai_Y-15" value="Provisionally books room" style="verticalAlign=bottom;endArrow=block;shadow=0;strokeWidth=1;entryX=0;entryY=0.415;entryDx=0;entryDy=0;entryPerimeter=0;" parent="1" source="3nuBFxr9cyL0pnOWT2aG-5" target="O2JDXleAkRafH4N3ai_Y-2" edge="1">
          <mxGeometry relative="1" as="geometry">
            <mxPoint x="350" y="180" as="sourcePoint" />
            <mxPoint x="500" y="179.88" as="targetPoint" />
          </mxGeometry>
        </mxCell>
        <mxCell id="O2JDXleAkRafH4N3ai_Y-16" value="Creates Reservation" style="verticalAlign=bottom;endArrow=block;shadow=0;strokeWidth=1;" parent="1" source="O2JDXleAkRafH4N3ai_Y-2" edge="1">
          <mxGeometry relative="1" as="geometry">
            <mxPoint x="490" y="200" as="sourcePoint" />
            <mxPoint x="630" y="290" as="targetPoint" />
          </mxGeometry>
        </mxCell>
        <mxCell id="O2JDXleAkRafH4N3ai_Y-17" value="Confirms Total price" style="verticalAlign=bottom;endArrow=block;shadow=0;strokeWidth=1;" parent="1" target="3nuBFxr9cyL0pnOWT2aG-5" edge="1">
          <mxGeometry x="-0.4847" relative="1" as="geometry">
            <mxPoint x="640" y="312" as="sourcePoint" />
            <mxPoint x="520" y="199.88" as="targetPoint" />
            <Array as="points">
              <mxPoint x="540" y="312" />
            </Array>
            <mxPoint as="offset" />
          </mxGeometry>
        </mxCell>
        <mxCell id="O2JDXleAkRafH4N3ai_Y-19" value="Confirms Reservation" style="verticalAlign=bottom;endArrow=block;shadow=0;strokeWidth=1;entryX=-0.2;entryY=0.45;entryDx=0;entryDy=0;entryPerimeter=0;" parent="1" source="O2JDXleAkRafH4N3ai_Y-1" target="O2JDXleAkRafH4N3ai_Y-14" edge="1">
          <mxGeometry x="-0.0174" relative="1" as="geometry">
            <mxPoint x="505" y="303" as="sourcePoint" />
            <mxPoint x="645" y="303" as="targetPoint" />
            <mxPoint as="offset" />
          </mxGeometry>
        </mxCell>
        <mxCell id="O2JDXleAkRafH4N3ai_Y-20" value="Reserves Room" style="verticalAlign=bottom;endArrow=block;shadow=0;strokeWidth=1;" parent="1" source="3nuBFxr9cyL0pnOWT2aG-6" edge="1">
          <mxGeometry relative="1" as="geometry">
            <mxPoint x="330" y="322" as="sourcePoint" />
            <mxPoint x="480" y="350" as="targetPoint" />
          </mxGeometry>
        </mxCell>
        <mxCell id="O2JDXleAkRafH4N3ai_Y-21" value="Requests Payment Details" style="verticalAlign=bottom;endArrow=block;shadow=0;strokeWidth=1;entryX=1.1;entryY=0.703;entryDx=0;entryDy=0;entryPerimeter=0;" parent="1" source="3nuBFxr9cyL0pnOWT2aG-6" target="3nuBFxr9cyL0pnOWT2aG-2" edge="1">
          <mxGeometry relative="1" as="geometry">
            <mxPoint x="330" y="230" as="sourcePoint" />
            <mxPoint x="170" y="230" as="targetPoint" />
            <Array as="points" />
          </mxGeometry>
        </mxCell>
        <mxCell id="O2JDXleAkRafH4N3ai_Y-22" value="provides payment details" style="verticalAlign=bottom;endArrow=block;shadow=0;strokeWidth=1;exitX=1.4;exitY=0.784;exitDx=0;exitDy=0;exitPerimeter=0;" parent="1" source="3nuBFxr9cyL0pnOWT2aG-2" target="3nuBFxr9cyL0pnOWT2aG-6" edge="1">
          <mxGeometry relative="1" as="geometry">
            <mxPoint x="159.5" y="360" as="sourcePoint" />
            <mxPoint x="330" y="360" as="targetPoint" />
          </mxGeometry>
        </mxCell>
        <mxCell id="O2JDXleAkRafH4N3ai_Y-23" value="Room bill" style="verticalAlign=bottom;endArrow=block;shadow=0;strokeWidth=1;exitX=1.5;exitY=0.867;exitDx=0;exitDy=0;exitPerimeter=0;" parent="1" source="3nuBFxr9cyL0pnOWT2aG-6" target="O2JDXleAkRafH4N3ai_Y-5" edge="1">
          <mxGeometry relative="1" as="geometry">
            <mxPoint x="345" y="348.1" as="sourcePoint" />
            <mxPoint x="497" y="348.1" as="targetPoint" />
          </mxGeometry>
        </mxCell>
        <mxCell id="O2JDXleAkRafH4N3ai_Y-6" value="" style="points=[];perimeter=orthogonalPerimeter;rounded=0;shadow=0;strokeWidth=1;" parent="1" vertex="1">
          <mxGeometry x="842" y="389" width="10" height="60" as="geometry" />
        </mxCell>
        <mxCell id="O2JDXleAkRafH4N3ai_Y-24" value="Confirms the transaction" style="verticalAlign=bottom;endArrow=block;shadow=0;strokeWidth=1;entryX=1.2;entryY=0.939;entryDx=0;entryDy=0;entryPerimeter=0;exitX=0.1;exitY=0.85;exitDx=0;exitDy=0;exitPerimeter=0;" parent="1" source="O2JDXleAkRafH4N3ai_Y-6" target="3nuBFxr9cyL0pnOWT2aG-6" edge="1">
          <mxGeometry x="-0.0174" relative="1" as="geometry">
            <mxPoint x="780" y="439" as="sourcePoint" />
            <mxPoint x="643" y="368" as="targetPoint" />
            <mxPoint as="offset" />
          </mxGeometry>
        </mxCell>
        <mxCell id="O2JDXleAkRafH4N3ai_Y-25" value="Confirms Reservation" style="verticalAlign=bottom;endArrow=block;shadow=0;strokeWidth=1;entryX=0.9;entryY=0.977;entryDx=0;entryDy=0;entryPerimeter=0;" parent="1" source="3nuBFxr9cyL0pnOWT2aG-5" target="3nuBFxr9cyL0pnOWT2aG-2" edge="1">
          <mxGeometry relative="1" as="geometry">
            <mxPoint x="335" y="377.92999999999995" as="sourcePoint" />
            <mxPoint x="166" y="377.92999999999995" as="targetPoint" />
            <Array as="points" />
          </mxGeometry>
        </mxCell>
        <mxCell id="VRu0M-AiyCUYMiCGWRiW-4" value="" style="shape=umlActor;verticalLabelPosition=bottom;verticalAlign=top;html=1;fillColor=#ffe6cc;strokeColor=#d79b00;" parent="1" vertex="1">
          <mxGeometry x="135" y="20" width="30" height="60" as="geometry" />
        </mxCell>
        <mxCell id="b4xolvwNXa7BAYy2pDqy-1" value="Manager" style="shape=umlLifeline;perimeter=lifelinePerimeter;container=1;collapsible=0;recursiveResize=0;rounded=0;shadow=0;strokeWidth=1;perimeterSpacing=0;fillColor=#dae8fc;strokeColor=#6c8ebf;" vertex="1" parent="1">
          <mxGeometry x="150" y="760" width="100" height="380" as="geometry" />
        </mxCell>
        <mxCell id="b4xolvwNXa7BAYy2pDqy-2" value="" style="points=[];perimeter=orthogonalPerimeter;rounded=0;shadow=0;strokeWidth=1;" vertex="1" parent="b4xolvwNXa7BAYy2pDqy-1">
          <mxGeometry x="45" y="70" width="10" height="140" as="geometry" />
        </mxCell>
        <mxCell id="b4xolvwNXa7BAYy2pDqy-3" value="" style="verticalAlign=bottom;startArrow=oval;endArrow=block;startSize=8;shadow=0;strokeWidth=1;" edge="1" parent="b4xolvwNXa7BAYy2pDqy-1" target="b4xolvwNXa7BAYy2pDqy-2">
          <mxGeometry x="0.5" y="20" relative="1" as="geometry">
            <mxPoint x="-15" y="70" as="sourcePoint" />
            <mxPoint as="offset" />
          </mxGeometry>
        </mxCell>
        <mxCell id="b4xolvwNXa7BAYy2pDqy-4" value="Hotel System" style="shape=umlLifeline;perimeter=lifelinePerimeter;container=1;collapsible=0;recursiveResize=0;rounded=0;shadow=0;strokeWidth=1;perimeterSpacing=0;fillColor=#e1d5e7;strokeColor=#9673a6;" vertex="1" parent="1">
          <mxGeometry x="420" y="760" width="100" height="380" as="geometry" />
        </mxCell>
        <mxCell id="b4xolvwNXa7BAYy2pDqy-5" value="" style="points=[];perimeter=orthogonalPerimeter;rounded=0;shadow=0;strokeWidth=1;" vertex="1" parent="b4xolvwNXa7BAYy2pDqy-4">
          <mxGeometry x="45" y="70" width="10" height="130" as="geometry" />
        </mxCell>
        <mxCell id="b4xolvwNXa7BAYy2pDqy-8" value="" style="endArrow=classic;html=1;rounded=0;entryX=0.929;entryY=0.146;entryDx=0;entryDy=0;entryPerimeter=0;startArrow=none;" edge="1" parent="1" source="b4xolvwNXa7BAYy2pDqy-12" target="b4xolvwNXa7BAYy2pDqy-2">
          <mxGeometry width="50" height="50" relative="1" as="geometry">
            <mxPoint x="199.07142857142844" y="700" as="sourcePoint" />
            <mxPoint x="459.5000000000002" y="700" as="targetPoint" />
          </mxGeometry>
        </mxCell>
        <mxCell id="b4xolvwNXa7BAYy2pDqy-13" value="&lt;span style=&quot;background-color: rgb(255 , 255 , 255)&quot;&gt;Update Prices&lt;/span&gt;" style="text;html=1;align=center;verticalAlign=middle;resizable=0;points=[];autosize=1;strokeColor=none;fillColor=none;" vertex="1" parent="1">
          <mxGeometry x="280" y="933" width="90" height="20" as="geometry" />
        </mxCell>
        <mxCell id="b4xolvwNXa7BAYy2pDqy-14" value="&lt;span style=&quot;background-color: rgb(255 , 255 , 255)&quot;&gt;Manage hotel data&lt;/span&gt;" style="text;html=1;align=center;verticalAlign=middle;resizable=0;points=[];autosize=1;strokeColor=none;fillColor=none;" vertex="1" parent="1">
          <mxGeometry x="280" y="870" width="110" height="20" as="geometry" />
        </mxCell>
        <mxCell id="b4xolvwNXa7BAYy2pDqy-27" value="Hotel System" style="shape=umlLifeline;perimeter=lifelinePerimeter;container=1;collapsible=0;recursiveResize=0;rounded=0;shadow=0;strokeWidth=1;perimeterSpacing=0;fillColor=#e1d5e7;strokeColor=#9673a6;" vertex="1" parent="1">
          <mxGeometry x="390" y="480" width="100" height="220" as="geometry" />
        </mxCell>
        <mxCell id="b4xolvwNXa7BAYy2pDqy-28" value="" style="points=[];perimeter=orthogonalPerimeter;rounded=0;shadow=0;strokeWidth=1;" vertex="1" parent="b4xolvwNXa7BAYy2pDqy-27">
          <mxGeometry x="45" y="70" width="10" height="130" as="geometry" />
        </mxCell>
        <mxCell id="b4xolvwNXa7BAYy2pDqy-29" value="Guest" style="shape=umlLifeline;perimeter=lifelinePerimeter;container=1;collapsible=0;recursiveResize=0;rounded=0;shadow=0;strokeWidth=1;perimeterSpacing=0;fillColor=#ffe6cc;strokeColor=#d79b00;" vertex="1" parent="1">
          <mxGeometry x="165" y="480" width="100" height="220" as="geometry" />
        </mxCell>
        <mxCell id="b4xolvwNXa7BAYy2pDqy-30" value="" style="points=[];perimeter=orthogonalPerimeter;rounded=0;shadow=0;strokeWidth=1;" vertex="1" parent="b4xolvwNXa7BAYy2pDqy-29">
          <mxGeometry x="45" y="70" width="10" height="140" as="geometry" />
        </mxCell>
        <mxCell id="b4xolvwNXa7BAYy2pDqy-31" value="" style="verticalAlign=bottom;startArrow=oval;endArrow=block;startSize=8;shadow=0;strokeWidth=1;" edge="1" parent="b4xolvwNXa7BAYy2pDqy-29" target="b4xolvwNXa7BAYy2pDqy-30">
          <mxGeometry x="0.5" y="20" relative="1" as="geometry">
            <mxPoint x="-15" y="70" as="sourcePoint" />
            <mxPoint as="offset" />
          </mxGeometry>
        </mxCell>
        <mxCell id="b4xolvwNXa7BAYy2pDqy-12" value="&lt;span style=&quot;background-color: rgb(255 , 255 , 255)&quot;&gt;Get Feedback&lt;/span&gt;t" style="text;html=1;align=center;verticalAlign=middle;resizable=0;points=[];autosize=1;strokeColor=none;fillColor=none;" vertex="1" parent="1">
          <mxGeometry x="290" y="842" width="90" height="20" as="geometry" />
        </mxCell>
        <mxCell id="b4xolvwNXa7BAYy2pDqy-32" value="" style="endArrow=none;html=1;rounded=0;entryX=0.929;entryY=0.146;entryDx=0;entryDy=0;entryPerimeter=0;" edge="1" parent="1" source="b4xolvwNXa7BAYy2pDqy-4" target="b4xolvwNXa7BAYy2pDqy-12">
          <mxGeometry width="50" height="50" relative="1" as="geometry">
            <mxPoint x="469.5000000000002" y="850.44" as="sourcePoint" />
            <mxPoint x="204.28999999999996" y="850.44" as="targetPoint" />
          </mxGeometry>
        </mxCell>
        <mxCell id="b4xolvwNXa7BAYy2pDqy-10" value="" style="endArrow=classic;html=1;rounded=0;exitX=1.5;exitY=0.458;exitDx=0;exitDy=0;exitPerimeter=0;" edge="1" parent="1" source="b4xolvwNXa7BAYy2pDqy-5" target="b4xolvwNXa7BAYy2pDqy-1">
          <mxGeometry width="50" height="50" relative="1" as="geometry">
            <mxPoint x="473.0700000000002" y="890.0000000000001" as="sourcePoint" />
            <mxPoint x="204.99999999999983" y="890.0000000000001" as="targetPoint" />
          </mxGeometry>
        </mxCell>
        <mxCell id="b4xolvwNXa7BAYy2pDqy-7" value="" style="endArrow=classic;html=1;rounded=0;" edge="1" parent="1" source="b4xolvwNXa7BAYy2pDqy-1" target="b4xolvwNXa7BAYy2pDqy-4">
          <mxGeometry width="50" height="50" relative="1" as="geometry">
            <mxPoint x="205.00142857142845" y="939.9999999999998" as="sourcePoint" />
            <mxPoint x="473.0700000000001" y="939.9999999999998" as="targetPoint" />
          </mxGeometry>
        </mxCell>
        <mxCell id="b4xolvwNXa7BAYy2pDqy-36" value="" style="endArrow=classic;html=1;rounded=0;exitX=1;exitY=0.14;exitDx=0;exitDy=0;exitPerimeter=0;" edge="1" parent="1" source="b4xolvwNXa7BAYy2pDqy-30" target="b4xolvwNXa7BAYy2pDqy-27">
          <mxGeometry width="50" height="50" relative="1" as="geometry">
            <mxPoint x="209.07142857142844" y="960" as="sourcePoint" />
            <mxPoint x="479.5000000000002" y="960" as="targetPoint" />
          </mxGeometry>
        </mxCell>
        <mxCell id="b4xolvwNXa7BAYy2pDqy-37" value="&lt;span style=&quot;background-color: rgb(255 , 255 , 255)&quot;&gt;Send FeedBack&lt;/span&gt;" style="text;html=1;align=center;verticalAlign=middle;resizable=0;points=[];autosize=1;strokeColor=none;fillColor=none;" vertex="1" parent="1">
          <mxGeometry x="280" y="550" width="100" height="20" as="geometry" />
        </mxCell>
        <mxCell id="b4xolvwNXa7BAYy2pDqy-38" value="Guest" style="shape=umlLifeline;perimeter=lifelinePerimeter;container=1;collapsible=0;recursiveResize=0;rounded=0;shadow=0;strokeWidth=1;perimeterSpacing=0;fillColor=#ffe6cc;strokeColor=#d79b00;" vertex="1" parent="1">
          <mxGeometry x="640" y="470" width="100" height="220" as="geometry" />
        </mxCell>
        <mxCell id="b4xolvwNXa7BAYy2pDqy-39" value="" style="points=[];perimeter=orthogonalPerimeter;rounded=0;shadow=0;strokeWidth=1;" vertex="1" parent="b4xolvwNXa7BAYy2pDqy-38">
          <mxGeometry x="45" y="70" width="10" height="140" as="geometry" />
        </mxCell>
        <mxCell id="b4xolvwNXa7BAYy2pDqy-40" value="" style="verticalAlign=bottom;startArrow=oval;endArrow=block;startSize=8;shadow=0;strokeWidth=1;" edge="1" parent="b4xolvwNXa7BAYy2pDqy-38" target="b4xolvwNXa7BAYy2pDqy-39">
          <mxGeometry x="0.5" y="20" relative="1" as="geometry">
            <mxPoint x="-15" y="70" as="sourcePoint" />
            <mxPoint as="offset" />
          </mxGeometry>
        </mxCell>
        <mxCell id="b4xolvwNXa7BAYy2pDqy-41" value="Hotel System" style="shape=umlLifeline;perimeter=lifelinePerimeter;container=1;collapsible=0;recursiveResize=0;rounded=0;shadow=0;strokeWidth=1;perimeterSpacing=0;fillColor=#e1d5e7;strokeColor=#9673a6;" vertex="1" parent="1">
          <mxGeometry x="860" y="470" width="100" height="220" as="geometry" />
        </mxCell>
        <mxCell id="b4xolvwNXa7BAYy2pDqy-42" value="" style="points=[];perimeter=orthogonalPerimeter;rounded=0;shadow=0;strokeWidth=1;" vertex="1" parent="b4xolvwNXa7BAYy2pDqy-41">
          <mxGeometry x="45" y="70" width="10" height="130" as="geometry" />
        </mxCell>
        <mxCell id="b4xolvwNXa7BAYy2pDqy-43" value="" style="endArrow=classic;html=1;rounded=0;exitX=1.5;exitY=0.221;exitDx=0;exitDy=0;exitPerimeter=0;" edge="1" parent="1" source="b4xolvwNXa7BAYy2pDqy-39" target="b4xolvwNXa7BAYy2pDqy-42">
          <mxGeometry width="50" height="50" relative="1" as="geometry">
            <mxPoint x="230" y="579.6000000000001" as="sourcePoint" />
            <mxPoint x="449.5000000000002" y="579.6000000000001" as="targetPoint" />
          </mxGeometry>
        </mxCell>
        <mxCell id="b4xolvwNXa7BAYy2pDqy-44" value="&lt;span style=&quot;background-color: rgb(255 , 255 , 255)&quot;&gt;&amp;nbsp;Cancel Reservation&lt;/span&gt;" style="text;html=1;align=center;verticalAlign=middle;resizable=0;points=[];autosize=1;strokeColor=none;fillColor=none;" vertex="1" parent="1">
          <mxGeometry x="730" y="550" width="120" height="20" as="geometry" />
        </mxCell>
      </root>
    </mxGraphModel>
  </diagram>
</mxfile>
